# xmcd
#
# Track frame offsets:
#	150
#	13137
#	29347
#	52025
#	69775
#	84397
#	102150
#	113562
#	128562
#	144772
#	158925
#
# Disc length: 2281 seconds
#
# Revision: 2
# Processed by: cddbd v1.5.2PL0 Copyright (c) Steve Scherf et al.
# Submitted via: audiograbber 1.83.01
#
DISCID=8108e70b
DTITLE=Various Artist - From The Heart - Women of Country
DYEAR=1997
DGENRE=Country
TTITLE0=Mary Chapin Carpenter - Let Me Into Your Heart
TTITLE1=Reba McEntire - For My Broken Heart
TTITLE2=Wynonna - My Angel Is Here
TTITLE3=Trisha Yearwood - Down On My Knees
TTITLE4=Martina McBride - Safe In The Arms Of Love
TTITLE5=Terri Clark - If I Were You
TTITLE6=Patty Loveless - Timber, I'm Falling In Love
TTITLE7=Lorrie Morgan - I Didn't Know My Own Strength
TTITLE8=Lee Ann Womack - You've Got To Talk To Me
TTITLE9=Pam Tillis - Shake The Sugar Tree
TTITLE10=Patsy Cline - Crazy
EXTD=
EXTT0=
EXTT1=
EXTT2=
EXTT3=
EXTT4=
EXTT5=
EXTT6=
EXTT7=
EXTT8=
EXTT9=
EXTT10=
PLAYORDER=
